<svg xmlns="http://www.w3.org/2000/svg" width="69.948" height="69.948" viewBox="0 0 69.948 69.948">
  <g id="_2052167214352" transform="translate(-615.767 -596.08)">
    <circle id="Ellipse_11" data-name="Ellipse 11" cx="34.974" cy="34.974" r="34.974" transform="translate(615.767 596.08)" fill="#19bd9a"/>
    <path id="Path_18" data-name="Path 18" d="M664.1,619.894a8.855,8.855,0,0,0-12.081.874l-1.275,1.32-1.276-1.314c-2.641-2.732-7.969-4.376-12.081-.88a9.289,9.289,0,0,0-.641,13.453l12.528,12.935a2.033,2.033,0,0,0,1.463.628,2.01,2.01,0,0,0,1.463-.628l12.528-12.935a9.277,9.277,0,0,0-.628-13.453h0Zm-.848,12.016-12.483,12.935L638.235,631.91a7.21,7.21,0,0,1,.5-10.437c3.548-3.029,7.717-.835,9.245.745l2.765,2.855,2.764-2.855c1.5-1.554,5.71-3.755,9.245-.745A7.217,7.217,0,0,1,663.251,631.91Z" fill="#fff" fill-rule="evenodd"/>
  </g>
</svg>
