<svg xmlns="http://www.w3.org/2000/svg" width="69.948" height="69.948" viewBox="0 0 69.948 69.948">
  <g id="Group_11" data-name="Group 11" transform="translate(-615.767 -273.11)">
    <circle id="Ellipse_6" data-name="Ellipse 6" cx="34.974" cy="34.974" r="34.974" transform="translate(615.767 273.11)" fill="#81868e"/>
    <g id="Group_10" data-name="Group 10">
      <g id="Group_9" data-name="Group 9">
        <path id="Path_10" data-name="Path 10" d="M661.816,301.836a9.91,9.91,0,1,1,0,19.819,11.151,11.151,0,0,1-7.067-2.915h-8.015a9.321,9.321,0,0,1-7.068,2.915,9.91,9.91,0,0,1,0-19.819Zm0-2.331h-22.15a12.24,12.24,0,1,0,7.928,21.567h6.295a12.24,12.24,0,1,0,7.927-21.567Zm2.915,7.286a2.623,2.623,0,1,0,2.623,2.623A2.621,2.621,0,0,0,664.731,306.791Zm-4.663,4.663a2.623,2.623,0,1,0,2.623,2.623A2.622,2.622,0,0,0,660.068,311.454Zm-19.527-1.166v-3.351a.438.438,0,0,0-.437-.437h-2.041a.438.438,0,0,0-.437.437v3.351h-3.352a.439.439,0,0,0-.437.437v2.041a.439.439,0,0,0,.437.437h3.352v3.351a.439.439,0,0,0,.437.438H640.1a.439.439,0,0,0,.437-.438V313.2h3.351a.439.439,0,0,0,.437-.437v-2.041a.439.439,0,0,0-.437-.437Z" fill="#fff" fill-rule="evenodd"/>
      </g>
      <path id="Path_11" data-name="Path 11" d="M651.184,300.115a17.734,17.734,0,0,1,.253-3.736,6.148,6.148,0,0,1,1.429-2.827,7.635,7.635,0,0,1,2.206-1.6,5.533,5.533,0,0,1,2.476-.626,37.506,37.506,0,0,0,4.37-.325,3.74,3.74,0,0,0,2.339-1.5,10.522,10.522,0,0,0,1.731-2.588,10.265,10.265,0,0,0,.634-2.622,2.561,2.561,0,0,1,.111-.625" fill="none" stroke="#fff" stroke-miterlimit="22.926" stroke-width="2.001" fill-rule="evenodd"/>
    </g>
  </g>
</svg>
