<svg xmlns="http://www.w3.org/2000/svg" width="37.054" height="37.054" viewBox="0 0 37.054 37.054">
  <g id="_2052167213584" transform="translate(-701.602 -117.698)">
    <circle id="Ellipse_12" data-name="Ellipse 12" cx="18.527" cy="18.527" r="18.527" transform="translate(701.602 117.698)"/>
    <path id="Path_19" data-name="Path 19" d="M727.205,130.313a4.692,4.692,0,0,0-6.4.463l-.675.7-.676-.7a4.716,4.716,0,0,0-6.4-.467,4.921,4.921,0,0,0-.339,7.127l6.636,6.852a1.078,1.078,0,0,0,.775.333,1.065,1.065,0,0,0,.775-.333l6.636-6.852a4.914,4.914,0,0,0-.332-7.127Zm-.45,6.365-6.612,6.853-6.639-6.853a3.819,3.819,0,0,1,.264-5.528,3.623,3.623,0,0,1,4.9.4l1.465,1.512,1.464-1.512a3.648,3.648,0,0,1,4.9-.4,3.822,3.822,0,0,1,.264,5.528Z" fill="#fff" fill-rule="evenodd"/>
  </g>
</svg>
