<svg xmlns="http://www.w3.org/2000/svg" width="37.053" height="37.053" viewBox="0 0 37.053 37.053">
  <g id="Group_6" data-name="Group 6" transform="translate(-650.239 -18.781)">
    <circle id="Ellipse_2" data-name="Ellipse 2" cx="3.314" cy="3.314" r="3.314" transform="translate(665.301 34.144)" fill="#3f729b"/>
    <path id="Path_3" data-name="Path 3" d="M672.757,29.324h-8.284a3.658,3.658,0,0,0-3.992,3.992V41.6a4.155,4.155,0,0,0,1.13,3.013,4.249,4.249,0,0,0,2.937,1.054h8.209a4.119,4.119,0,0,0,2.937-1.054,3.855,3.855,0,0,0,1.13-2.938V33.391a4.244,4.244,0,0,0-1.054-2.937A4.036,4.036,0,0,0,672.757,29.324Zm-4.142,13.255a5.121,5.121,0,0,1,0-10.242,5.122,5.122,0,1,1,0,10.242Zm5.347-9.263a1.205,1.205,0,1,1,1.205-1.205A1.189,1.189,0,0,1,673.962,33.316Z" fill="#3f729b" fill-rule="evenodd"/>
    <path id="Path_4" data-name="Path 4" d="M668.765,18.781a18.526,18.526,0,1,0,18.527,18.526A18.513,18.513,0,0,0,668.765,18.781Zm9.866,22.894a5.968,5.968,0,0,1-1.657,4.293,5.86,5.86,0,0,1-4.217,1.581h-8.209a5.861,5.861,0,0,1-4.218-1.582,5.674,5.674,0,0,1-1.656-4.292V33.391a5.573,5.573,0,0,1,5.874-5.874h8.284a5.553,5.553,0,0,1,5.8,5.874v8.284Z" fill="#3f729b" fill-rule="evenodd"/>
  </g>
</svg>
