<svg xmlns="http://www.w3.org/2000/svg" width="69.948" height="69.948" viewBox="0 0 69.948 69.948">
  <g id="_2052167215216" transform="translate(-615.767 -515.256)">
    <circle id="Ellipse_10" data-name="Ellipse 10" cx="34.974" cy="34.974" r="34.974" transform="translate(615.767 515.256)" fill="#81868e"/>
    <path id="Path_17" data-name="Path 17" d="M650.741,530.639a13.461,13.461,0,0,0-10.135,22.329c1.963,2.239,3.848,5.885,4.013,7.058l.005,5.753a1.219,1.219,0,0,0,.205.677l1.875,2.819a1.227,1.227,0,0,0,1.02.546h6.034a1.222,1.222,0,0,0,1.019-.546l1.876-2.82a1.23,1.23,0,0,0,.205-.676l.006-5.753c.173-1.2,2.065-4.836,4.013-7.058a13.462,13.462,0,0,0-10.136-22.329Zm3.669,34.768-1.308,1.965H648.38l-1.308-1.965v-.484h7.339v.484Zm0-2.932h-7.345l-.005-2.449h7.353l0,2.449h0Zm4.623-11.122a26.065,26.065,0,0,0-3.871,6.223h-8.846a26.164,26.164,0,0,0-3.871-6.223,11.02,11.02,0,1,1,16.588,0Zm-8.295-15.817a8.581,8.581,0,0,0-8.571,8.571,1.224,1.224,0,1,0,2.449,0,6.129,6.129,0,0,1,6.122-6.122,1.224,1.224,0,1,0,0-2.449Z" fill="#fff" fill-rule="evenodd"/>
  </g>
</svg>
