<svg xmlns="http://www.w3.org/2000/svg" width="37.054" height="37.054" viewBox="0 0 37.054 37.054">
  <path id="Path_6" data-name="Path 6" d="M730.527,97.846V90.613c0-3.875-2.069-5.678-4.827-5.678a4.16,4.16,0,0,0-3.779,2.083V85.231h-4.193c.055,1.184,0,12.615,0,12.615h4.193V90.8a2.869,2.869,0,0,1,.138-1.022,2.3,2.3,0,0,1,2.151-1.533c1.517,0,2.124,1.157,2.124,2.852v6.749h4.193ZM713.31,83.509a2.336,2.336,0,1,0-.027,0Zm6.819,24.133a18.527,18.527,0,1,1,18.527-18.527A18.527,18.527,0,0,1,720.129,107.642Zm-4.722-9.8V85.231h-4.193V97.846Z" transform="translate(-701.602 -70.588)" fill="#0e76a8" fill-rule="evenodd"/>
</svg>
