<svg xmlns="http://www.w3.org/2000/svg" width="37.054" height="37.054" viewBox="0 0 37.054 37.054">
  <g id="_2052166319072" transform="translate(-701.602 -167.437)">
    <circle id="Ellipse_13" data-name="Ellipse 13" cx="18.527" cy="18.527" r="18.527" transform="translate(701.602 167.437)"/>
    <g id="Group_14" data-name="Group 14">
      <path id="Path_20" data-name="Path 20" d="M718.368,187.746a4.3,4.3,0,0,0,1.375.924.4.4,0,0,0,.528-.241,2.081,2.081,0,0,0,.094-.507.4.4,0,0,0-.237-.387,3.09,3.09,0,0,1-.915-.634,3.122,3.122,0,0,1-.012-4.4l.012-.012,2.627-2.627a3.119,3.119,0,1,1,4.411,4.41l-2.5,2.5a.4.4,0,0,0-.113.335c.02.158.034.319.04.478a.4.4,0,0,0,.67.275c.04-.036.08-.076.118-.114l2.627-2.627a4.313,4.313,0,0,0-6.1-6.1l-2.628,2.627a4.318,4.318,0,0,0,0,6.1h0Z" fill="#fff" fill-rule="evenodd"/>
      <path id="Path_21" data-name="Path 21" d="M721.889,190.282l-2.627,2.627a4.312,4.312,0,0,1-6.1-6.1l2.627-2.628.117-.113a.4.4,0,0,1,.67.275c.007.159.02.319.041.477a.4.4,0,0,1-.113.335l-2.5,2.5a3.118,3.118,0,0,0,4.41,4.41l2.628-2.628.012-.011a3.118,3.118,0,0,0-.928-5.033.4.4,0,0,1-.236-.387,2.032,2.032,0,0,1,.093-.506.4.4,0,0,1,.529-.241,4.312,4.312,0,0,1,1.374,7.023h0Z" fill="#fff" fill-rule="evenodd"/>
    </g>
  </g>
</svg>
