<svg xmlns="http://www.w3.org/2000/svg" width="69.948" height="69.948" viewBox="0 0 69.948 69.948">
  <g id="_2052167201168" transform="translate(-615.767 -356.162)">
    <circle id="Ellipse_7" data-name="Ellipse 7" cx="34.974" cy="34.974" r="34.974" transform="translate(615.767 356.162)" fill="#81868e"/>
    <g id="Group_12" data-name="Group 12">
      <path id="Path_12" data-name="Path 12" d="M658.483,387.775l-12.3-10.163a1.139,1.139,0,0,0-1.6.153l-1.452,1.756a1.138,1.138,0,0,0,.153,1.6l.292.242a7.6,7.6,0,0,0,.455,10.182l-2.928,3.543,1.171.967,2.928-3.542a7.6,7.6,0,0,0,10.085-1.471l.293.242a1.139,1.139,0,0,0,1.6-.152l1.452-1.757a1.139,1.139,0,0,0-.152-1.6Zm-2.229,2.1-1.171-.968-.968,1.172a6.077,6.077,0,1,1-9.368-7.744l.967-1.171-1.171-.968.968-1.171,11.711,9.679-.968,1.171Zm-.508-5.347,3.872-4.684a.759.759,0,1,1,1.171.967l-3.872,4.685-1.171-.968Zm-7.026-5.807,3.871-4.685a.76.76,0,0,1,1.171.968l-3.871,4.685Z" fill="#fff" fill-rule="evenodd"/>
      <path id="Path_13" data-name="Path 13" d="M641.842,395.362a20.522,20.522,0,0,0-1.688,2.348,5.778,5.778,0,0,0-.737,2.236,7.889,7.889,0,0,0,.077,2.724,6.443,6.443,0,0,0,1.293,2.554,8.2,8.2,0,0,0,2.588,2.27,6.766,6.766,0,0,0,3.505.634,9.432,9.432,0,0,0,3.975-1.079,17.24,17.24,0,0,0,3.641-2.9c1.123-1.1,2.151-2.193,3.171-3.264s2.03-2.116,3.1-3.153a25.558,25.558,0,0,1,3.2-2.733,5.812,5.812,0,0,1,2.845-1.071,6.847,6.847,0,0,1,3.11.42,10.907,10.907,0,0,1,2.664,1.731" fill="none" stroke="#fff" stroke-miterlimit="22.926" stroke-width="1" fill-rule="evenodd"/>
    </g>
  </g>
</svg>
