<svg xmlns="http://www.w3.org/2000/svg" width="69.948" height="69.948" viewBox="0 0 69.948 69.948">
  <g id="Group_8" data-name="Group 8" transform="translate(-615.767 -190.06)">
    <circle id="Ellipse_5" data-name="Ellipse 5" cx="34.974" cy="34.974" r="34.974" transform="translate(615.767 190.06)" fill="#81868e"/>
    <path id="Path_9" data-name="Path 9" d="M635.16,213.34H638.8v-1.214a3.643,3.643,0,0,1,3.643-3.643h24.288a3.643,3.643,0,0,1,3.643,3.643v4.858a3.644,3.644,0,0,1-3.643,3.643H642.446a3.644,3.644,0,0,1-3.643-3.643v-1.215H635.16a1.216,1.216,0,0,0-1.215,1.215v7.286a1.216,1.216,0,0,0,1.215,1.214h15.787a3.647,3.647,0,0,1,3.643,3.643v3.643H655.8a2.43,2.43,0,0,1,2.429,2.429v9.715a2.43,2.43,0,0,1-2.429,2.429h-4.857a2.43,2.43,0,0,1-2.429-2.429V235.2a2.43,2.43,0,0,1,2.429-2.429h1.214v-3.643a1.216,1.216,0,0,0-1.214-1.214H635.16a3.647,3.647,0,0,1-3.643-3.643v-7.286A3.647,3.647,0,0,1,635.16,213.34Zm6.072,0v3.644a1.216,1.216,0,0,0,1.214,1.214h24.288a1.216,1.216,0,0,0,1.214-1.214v-4.858a1.216,1.216,0,0,0-1.214-1.214H642.446a1.216,1.216,0,0,0-1.214,1.214Zm9.715,31.574H655.8V235.2h-4.857Z" fill="#fff" fill-rule="evenodd"/>
  </g>
</svg>
