<svg xmlns="http://www.w3.org/2000/svg" width="69.948" height="69.948" viewBox="0 0 69.948 69.948">
  <g id="Group_7" data-name="Group 7" transform="translate(-615.767 -117.344)">
    <circle id="Ellipse_4" data-name="Ellipse 4" cx="34.974" cy="34.974" r="34.974" transform="translate(615.767 117.344)" fill="#81868e"/>
    <path id="Path_8" data-name="Path 8" d="M669.457,162.446,660.016,153a6.07,6.07,0,0,0-7.643-.766l-6.489-6.49V140.17l-9.715-7.285-4.857,4.857,7.286,9.715h5.57l6.49,6.489a6.069,6.069,0,0,0,.774,7.643l9.449,9.449a2.423,2.423,0,0,0,1.715.713,2.394,2.394,0,0,0,1.715-.713l5.154-5.154a2.439,2.439,0,0,0-.008-3.438h0Zm-26-17.562v.144h-3.643l-5.29-7.058L636.4,136.1l7.058,5.29v3.5Zm19.133,24.431-9.441-9.449a3.639,3.639,0,1,1,5.146-5.146l9.449,9.442Zm-26.419-3.643a1.215,1.215,0,1,0,1.214-1.215A1.217,1.217,0,0,0,636.169,165.672Zm16.151-27.71a8.95,8.95,0,0,1,6.36-2.649,9.162,9.162,0,0,1,1.571.137l-5.26,5.267,1.048,6.3,6.307,1.048,5.259-5.26a8.94,8.94,0,0,1-2.512,7.931,8.786,8.786,0,0,1-2.277,1.632l1.791,1.792a10.98,10.98,0,0,0,2.2-1.708,11.36,11.36,0,0,0,3.013-10.876,2.054,2.054,0,0,0-1.449-1.488,2.084,2.084,0,0,0-2.026.531l-4.85,4.85-3.355-.561-.562-3.355,4.85-4.85a2.066,2.066,0,0,0-.964-3.468,11.376,11.376,0,0,0-10.868,3.013,11.143,11.143,0,0,0-2.285,3.339v5.146l1.678,1.677A8.936,8.936,0,0,1,652.32,137.962Zm-12.888,30.374a3.419,3.419,0,0,1-4.72,0,3.349,3.349,0,0,1,0-4.721L645.8,152.527l-1.715-1.716L633,161.9a5.764,5.764,0,0,0,4.076,9.844,5.707,5.707,0,0,0,4.076-1.693l7.726-7.718a8.8,8.8,0,0,1-1.176-2.262l-8.266,8.265Z" fill="#fff" fill-rule="evenodd"/>
  </g>
</svg>
