<svg xmlns="http://www.w3.org/2000/svg" width="37.054" height="37.054" viewBox="0 0 37.054 37.054">
  <path id="Path_5" data-name="Path 5" d="M624.024,30.071a3.745,3.745,0,0,0-2.524,3.768l.039.641-.647-.079a10.519,10.519,0,0,1-6.16-3.035l-.854-.85-.22.628a3.784,3.784,0,0,0,.8,3.873c.518.549.4.628-.491.3a1.564,1.564,0,0,0-.609-.144,4.724,4.724,0,0,0,.466,1.754A4.181,4.181,0,0,0,615.6,38.6l.634.3-.75.013c-.725,0-.75.013-.673.288a3.911,3.911,0,0,0,2.42,2.146l.8.275-.7.418a7.252,7.252,0,0,1-3.468.968,3.81,3.81,0,0,0-1.062.1,9.879,9.879,0,0,0,2.5,1.151,10.916,10.916,0,0,0,8.489-.968,11.379,11.379,0,0,0,4.309-5.077,13.506,13.506,0,0,0,.88-3.924c0-.6.039-.681.763-1.4a8.512,8.512,0,0,0,.906-1.007c.13-.249.116-.249-.543-.027-1.1.393-1.256.341-.712-.248a3.815,3.815,0,0,0,.88-1.4c0-.039-.194.026-.414.143a7.007,7.007,0,0,1-1.139.445l-.7.223-.634-.432a5.278,5.278,0,0,0-1.1-.576,4.422,4.422,0,0,0-2.265.053ZM621.45,55.834a18.527,18.527,0,1,1,18.527-18.527A18.527,18.527,0,0,1,621.45,55.834Z" transform="translate(-602.923 -18.78)" fill="#26a6d1" fill-rule="evenodd"/>
</svg>
