<svg xmlns="http://www.w3.org/2000/svg" width="37.053" height="37.053" viewBox="0 0 37.053 37.053">
  <path id="Path_7" data-name="Path 7" d="M659.229,88.785s1.739-1.371,2.319-.685,2.792,8.96,3.531,10.486c.645,1.339,2.423,3.108,4.373,1.844s8.431-6.8,9.59-13.332-7.8-5.165-8.748.527c2.372-1.424,3.638.579,2.425,2.846s-2.319,3.742-2.9,3.742-1.024-1.516-1.687-4.165c-.685-2.739-.681-7.672-3.53-7.113-2.687.528-6.217,4.743-6.217,4.743l.842,1.107Zm9.537,21.549a18.527,18.527,0,1,1,18.526-18.526A18.527,18.527,0,0,1,668.766,110.334Z" transform="translate(-650.239 -73.281)" fill="#86c9ef" fill-rule="evenodd"/>
</svg>
